<svg height="798.86732" viewBox="0 0 1169.10764 798.86732" width="1169.10764" xmlns="http://www.w3.org/2000/svg"><path d="m972.83617 488.96483c-31.82364 40.45984-19.46023 99.567.76182 146.90419 6.77059 15.84908 14.42842 32.61733 11.57171 49.61361-3.49332 20.78387-22.04282 35.98149-41.51838 44.036-35.50305 14.68294-77.98808 11.1837-110.61027-9.11033-28.19162-17.53783-48.38105-46.0583-77.05381-62.79796-47.98384-28.01379-109.06-17.43486-161.1642 1.86212-36.86251 13.65216-77.16372 31.40649-113.7925 17.13912-25.77391-10.03925-43.58943-34.47414-53.29654-60.375-4.68673-12.50528-8.0884-26.041-17.03815-35.9531-5.3207-5.89282-12.26446-10.07552-19.37758-13.60236-64.95318-32.20525-146.98893-14.95887-210.0777-50.67862-42.60792-24.12384-69.88539-69.62957-81.963-117.07982s-10.6708-97.20522-7.60435-146.0723c2.17919-34.72773 6.089-71.80312 28.27864-98.60583 23.47358-28.35355 63.75914-38.89655 100.17187-33.50748s69.41785 24.59678 98.45435 47.2201c36.28937 28.27427 69.9442 63.4825 114.49948 74.93583 30.34254 7.79981 62.26109 3.53332 93.55524 2.05584 52.31663-2.47 104.65479 3.02285 156.68319 9.03753 49.80809 5.758 99.97593 12.09526 147.42577 28.298 33.57893 11.46626 60.49936 32.28016 92.20642 46.82105 20.6679 9.47833 43.20545 12.09553 62.77386 24.16792 24.10533 14.87137 46.20455 40.73794 40.02829 71.00585-5.87211 28.77744-36.02356 43.21133-52.91416 64.68564z" fill="#6c63ff" opacity=".1" transform="translate(-15.44618 -50.56634)"/><path d="m39.17172 588.44624s183-48 420 74 496-96 491-129 172 0 172 0v295h-1083z" fill="#6c63ff" opacity=".1" transform="translate(-15.44618 -50.56634)"/><circle cx="151.10627" cy="49.73545" fill="#ffdf9c" r="49.73545"/><path d="m515.4078 304.69922-8.10071 50.38892s-10.1259 33.25668-9.11331 49.38113 0 38.29557 0 38.29557-24.30215 44.34225-4.05036 62.48225 26.32733-57.44336 26.32733-57.44336-3.03777-32.2489 4.05036-49.38113 8.10071-54.42 8.10071-54.42z" fill="#ffcdd3" transform="translate(-15.44618 -50.56634)"/><path d="m515.4078 304.69922-8.10071 50.38892s-10.1259 33.25668-9.11331 49.38113 0 38.29557 0 38.29557-24.30215 44.34225-4.05036 62.48225 26.32733-57.44336 26.32733-57.44336-3.03777-32.2489 4.05036-49.38113 8.10071-54.42 8.10071-54.42z" opacity=".05" transform="translate(-15.44618 -50.56634)"/><path d="m634.0493 477.97281 14.0077 52.46874 13.16369 61.47445s7.08813 13.10112 0 40.31113l23.28956 75.58337s13.16367 48.37336 21.26438 49.38114-8.10071 38.29557-8.10071 38.29557l-22.277-13.10112s-6.07554-30.23334-14.17626-37.28779-34.428-77.59893-34.428-77.59893l-8.10072-49.38113s-25.31473-67.52114-47.5917-83.6456-29.3651-42.32668-29.3651-42.32668z" fill="#ffcdd3" transform="translate(-15.44618 -50.56634)"/><path d="m541.73513 492.146s7.08813 26.20223 29.3651 42.32668 47.5917 83.6456 47.5917 83.6456l8.10072 49.38113s26.32733 70.54448 34.428 77.59893c5.9439 5.18 10.80425 22.84631 12.9612 31.876.78985 3.27528 1.21506 5.41176 1.21506 5.41176l22.277 13.10112s16.20143-37.28779 8.10071-38.29557c-1.2556-.15119-2.63271-1.45121-4.07063-3.52723-7.79689-11.3073-17.19375-45.85391-17.19375-45.85391l-23.28956-75.58337c7.08813-27.21 0-40.31113 0-40.31113l-13.16368-61.47446-14.00419-52.46493z" opacity=".05" transform="translate(-15.44618 -50.56634)"/><path d="m412.12367 754.16832 8.10072 19.14779 36.45322-4.03111a83.70567 83.70567 0 0 1 -1.86325-15.82213c-.32385-11.43826 1.438-26.87743 10.97656-38.5979 17.214-21.16334 43.54135-73.56781 43.54135-73.56781s26.32732-28.21779 32.40286-39.30335l50.69029-84.62317-1.5797-7.58854 13.67-12.59723h-85.05756l-20.25179 78.6067-16.20143 32.24891s-34.428 29.22557-47.59171 90.7c0 0-13.13326 40.95612-21.49726 53.18042a14.69441 14.69441 0 0 1 -1.7923 2.24742z" fill="#ffcdd3" transform="translate(-15.44618 -50.56634)"/><path d="m674.18189 776.97435c.78985 3.27528 1.21506 5.41176 1.21506 5.41176l22.277 13.10112s16.20143-37.28779 8.10071-38.29557c-1.2556-.15119-2.63271-1.45121-4.07063-3.52723a5.67365 5.67365 0 0 0 -2.59229 6.27844 15.5728 15.5728 0 0 0 1.6 4.30324c3.03776 5.03889-10.1259 13.10111-10.1259 13.10111-4.4352 5.67378-11.63469 2.68067-16.40395-.37287z" opacity=".1" transform="translate(-15.44618 -50.56634)"/><path d="m700.12385 761.95737c-1.38923-5.81288 5.91427-9.70944 10.01629-5.34662a19.491 19.491 0 0 1 2.72262 3.60424c4.05036 7.05445 34.428 13.10112 40.50358 11.08556s27.33992-4.03111 22.277 11.08556-96.196 37.2878-96.196 37.2878-10.1259-14.1089-9.11331-24.18668a115.17769 115.17769 0 0 0 0-20.15556s14.17625 13.10111 21.26438 4.03111c0 0 13.16366-8.06223 10.12589-13.10112a15.57 15.57 0 0 1 -1.60045-4.30429z" fill="#dce6f2" transform="translate(-15.44618 -50.56634)"/><path d="m412.12367 754.16832 8.10072 19.14779 36.45322-4.03111a83.70567 83.70567 0 0 1 -1.86325-15.82213 4.99593 4.99593 0 0 0 -8.131-1.159c-1.8834 2.01555-3.78708 4.142-5.19459 5.89554-4.05036 5.03889-17.214 2.01555-17.214 2.01555-3.41243 1.12871-7.46278-3.76908-10.35878-8.294a14.69441 14.69441 0 0 1 -1.79232 2.24736z" opacity=".1" transform="translate(-15.44618 -50.56634)"/><path d="m445.667 754.32014a4.98369 4.98369 0 0 1 8.47588 2.091c1.84223 7.166 5.88346 16.42407 14.68578 19.92827 15.18885 6.04667 36.45323 16.12446 29.3651 25.19446s-31.39027 17.13223-52.65465 10.07778-51.64205-24.18665-51.64205-24.18665l15.18884-40.31113s8.10072 17.13223 14.17626 15.11667c0 0 13.16366 3.02333 17.214-2.01556 1.41025-1.7544 3.31148-3.87531 5.19084-5.89484z" fill="#dce6f2" transform="translate(-15.44618 -50.56634)"/><path d="m583.2513 187.797s-24.30215 33.25668-18.22661 56.43558-48.6043-15.11668-48.6043-15.11668 28.35251-25.1945 23.28961-66.51341z" fill="#ffcdd3" transform="translate(-15.44618 -50.56634)"/><path d="m503.25673 503.23154c40.50358 24.18668 89.10788 14.10889 89.10788 14.10889l-1.01261-7.05443c.70876.07055 1.41765.1411 2.10626.20156 38.71128 3.40624 47.51062-8.26379 47.51062-8.26379-6.05526-16.94075-10.80425-52.858-13.76118-80.62226-.42521-3.99082-.81-7.81028-1.16438-11.38788-.8-8.09249-1.39737-14.90508-1.78216-19.51064-.33424-4.05122-.5063-6.38928-.5063-6.38928l-4.05036-30.23334s-11.13848-36.28-6.07553-60.4667c4.31212-20.59984-9.739-28.041-14.00131-29.795a13.528 13.528 0 0 0 -2.059-.60863c-5.55386-1.31031-11.73877-6.96131-17.00078-13.0216a68.283 68.283 0 0 0 -28.40306-19.28889c-5.09335-1.84419-9.41713-3.79928-9.41713-3.79928-7.08813-8.06223-26.32733-3.02334-26.32733-3.02334-23.28956 15.11668-11.13848 64.49781-11.13848 64.49781l9.68041 27.53251c5.39706 15.32827 13.08258 29.679 21.95287 43.31429 14.885 22.8564-5.306 54.1177-5.306 54.1177-31.39016 25.19449-28.35243 89.6923-28.35243 89.6923z" fill="#ff8aa1" transform="translate(-15.44618 -50.56634)"/><path d="m589.83313 456.36985 3.62515 54.1177c38.71128 3.40624 47.51062-8.26379 47.51062-8.26379-6.05526-16.94075-10.80425-52.858-13.76118-80.62226-.42521-3.99082-.81-7.81028-1.16438-11.38788z" opacity=".05" transform="translate(-15.44618 -50.56634)"/><path d="m525.5337 314.777s18.22661 34.26446 24.30215 49.38113 6.07553 10.07778 9.1133 15.11667 35.44064 27.21 35.44064 27.21l32.81793 15.11667c-1.38712-13.02054-2.38957-24.25723-2.94654-30.89852l-30.884-20.49817s-21.26438-13.10112-22.277-30.23335-14.17618-48.37332-14.17618-48.37332-26.32732-28.2178-37.46581-15.11668 6.07551 38.29557 6.07551 38.29557z" opacity=".1" transform="translate(-15.44618 -50.56634)"/><path d="m556.924 286.55921s13.16367 31.24113 14.17626 48.37336 22.277 30.23335 22.277 30.23335l66.8309 44.34224s57.71761 19.14779 38.47841 41.31891-49.61689-24.18668-49.61689-24.18668l-54.67983-25.19446s-32.40287-22.17112-35.44064-27.21-3.03777 0-9.1133-15.11667-24.30215-49.38114-24.30215-49.38114-17.214-25.19445-6.07554-38.29557 37.46578 15.11666 37.46578 15.11666z" fill="#ffcdd3" transform="translate(-15.44618 -50.56634)"/><path d="m565.02469 299.66033s-20.25179-15.11667-24.30215-20.15556c-1.78806-2.22447-4.56283-1.89571-7.10464-.83449a32.04223 32.04223 0 0 1 -15.04575 2.47213c-4.43008-.37792-8.73359-.126-8.22729 2.39347 1.01258 5.03889-3.03777-26.20224-3.03777-26.20224l17.214-6.04666 22.277 12.09333z" opacity=".1" transform="translate(-15.44618 -50.56634)"/><path d="m565.02469 297.64477s-20.25179-15.11667-24.30215-20.15556c-1.78806-2.22446-4.56283-1.8957-7.10464-.83449a32.04223 32.04223 0 0 1 -15.04575 2.47213c-4.43008-.37792-8.73359-.126-8.22729 2.39347 1.01258 5.03889-3.03777-26.20223-3.03777-26.20223l17.214-6.04667 22.277 12.09334z" fill="#ff8aa1" transform="translate(-15.44618 -50.56634)"/><path d="m612.71127 299.66033a24.94731 24.94731 0 0 1 -22.87814-1.51167" opacity=".1" transform="translate(-15.44618 -50.56634)"/><path d="m546.29178 165.12193c.75747-6.02415-6.73782 6.48752-7.59442-.50388l43.54135 25.19445s-2.48524 3.4063-5.66467 8.785a44.6673 44.6673 0 0 1 -4.96752.285c-13.10013.00001-17.24641-24.7265-25.31474-33.76057z" opacity=".1" transform="translate(-15.44618 -50.56634)"/><ellipse cx="557.17293" cy="102.46226" fill="#ffcdd3" rx="44.04764" ry="43.83835"/><path d="m592.38123 153.7939c-.33111 2.752-.26906 5.66135-1.58454 8.10426-1.842 3.42065-5.81308 4.9769-9.13313 7.01242-13.45552 8.24957-17.44688 26.81015-13.15939 41.9489 1.51716 5.357 3.90967 10.79358 2.91576 16.27066-1.7081 9.4127-12.48079 14.29229-22.05467 15.12821s-19.596-.70845-28.54948 2.76763c-15.03751 5.83812-21.65937 23.39105-34.4419 33.20036-14.86744 11.40925-35.34621 10.70263-54.07315 12.02291-6.92393.48815-13.95013 1.31785-20.75181-.06067s-13.51315-5.45967-15.91572-11.94095c-3.38992-9.1448 2.78407-19.06073 9.95555-25.69905s15.92463-12.239 19.98473-21.10928c5.45768-11.92363 1.04582-26.98363 7.91146-38.16339a11.73388 11.73388 0 0 1 5.58455-5.09626c3.024-1.13035 6.379-.34937 9.60741-.2389 12.50522.42788 23.16973-9.49989 28.97836-20.52989s8.27625-23.515 13.58777-34.79043c6.011-12.76034 16.02737-24.02147 29.04845-29.56 7.62834-3.24471 15.95456-4.43639 23.91944-6.7451 9.05343-2.62424 17.69632-6.709 26.96975-8.40986s19.77881-.57821 26.55895 5.944c6.38147 6.13872 8.24215 15.771 14.34225 22.18676 2.30568 2.425 5.26624 4.476 6.37572 7.62652 2.62842 7.46372-10.12521 8.09329-14.3792 11.08155a27.834 27.834 0 0 0 -11.69716 19.0496z" opacity=".1" transform="translate(-15.44618 -50.56634)"/><path d="m590.35605 152.78613c-.33111 2.752-.26906 5.66134-1.58454 8.10425-1.842 3.42065-5.81308 4.9769-9.13312 7.01242-13.45552 8.24957-17.44689 26.81015-13.1594 41.9489 1.51716 5.357 3.90967 10.79359 2.91576 16.27066-1.7081 9.4127-12.48079 14.2923-22.05467 15.12821s-19.59595-.70845-28.54948 2.76764c-15.03751 5.83811-21.65936 23.39105-34.4419 33.20035-14.86744 11.40925-35.34621 10.70264-54.07314 12.02291-6.92393.48815-13.95014 1.31785-20.75182-.06067s-13.51315-5.45967-15.91572-11.94095c-3.38992-9.1448 2.78407-19.06073 9.95556-25.699s15.92462-12.239 19.98472-21.10928c5.45768-11.92363 1.04582-26.98363 7.91146-38.16338a11.73387 11.73387 0 0 1 5.58455-5.09626c3.024-1.13036 6.379-.34938 9.60741-.23891 12.50522.42789 23.16974-9.49989 28.97836-20.52989s8.27625-23.51495 13.58778-34.79043c6.011-12.76034 16.02737-24.02147 29.04844-29.56 7.62834-3.24471 15.95456-4.43639 23.91944-6.7451 9.05343-2.62423 17.69632-6.709 26.96975-8.40986s19.77881-.5782 26.55895 5.944c6.38147 6.13872 8.24216 15.771 14.34225 22.18677 2.30568 2.425 5.26624 4.476 6.37572 7.62651 2.62842 7.46372-10.12521 8.09329-14.3792 11.08155a27.834 27.834 0 0 0 -11.69716 19.04956z" fill="#6c63ff" transform="translate(-15.44618 -50.56634)"/><path d="m75.67172 828.94624s-33-59 8-106 89-21 89-21 60 28 46 95c0 0-8 34-32 32z" fill="#6c63ff" transform="translate(-15.44618 -50.56634)"/><path d="m75.67172 828.94624s-33-59 8-106 89-21 89-21 60 28 46 95c0 0-8 34-32 32z" fill="#fff" opacity=".2" transform="translate(-15.44618 -50.56634)"/><path d="m112.05888 778.4648 36.16666-110.0849" fill="none" stroke="#535461" stroke-miterlimit="10"/><path d="m196.67172 735.94624s-18.62042-8.761-37.31021-3.88049c0 0-9.68979-24.11951-31.68979-28.11951" fill="none" stroke="#535461" stroke-miterlimit="10" transform="translate(-15.44618 -50.56634)"/><path d="m205.67172 773.94624s-31.66357-22.88467-54.83178-15.94234c0 0-26.16822-31.05766-44.16822-29.05766" fill="none" stroke="#535461" stroke-miterlimit="10" transform="translate(-15.44618 -50.56634)"/><path d="m198.67172 814.94624s-27.06308-19.57308-60.53154-18.28654c0 0-25.46846-30.71346-49.46846-32.71346" fill="none" stroke="#535461" stroke-miterlimit="10" transform="translate(-15.44618 -50.56634)"/><path d="m141.95278 829.03113a70.97617 70.97617 0 0 0 -12.92581-4.63245s-20.85525-27.11911-62.60525-18.28578" fill="none" stroke="#535461" stroke-miterlimit="10" transform="translate(-15.44618 -50.56634)"/><path d="m432.67172 828.94624s33-54-49-134-77-95-70-107c0 0-66 8-52 107s74 134 74 134z" fill="#6c63ff" transform="translate(-15.44618 -50.56634)"/><path d="m386.17172 828.94624s-24.5-71-61.5-114-30-114-11-127" fill="none" stroke="#535461" stroke-miterlimit="10" stroke-width="2" transform="translate(-15.44618 -50.56634)"/><path d="m972.89321 189.33792c-14.73639 14.95457-15.70517 37.89491-15.70517 37.89491s22.92362-1.30581 37.66-16.26037 15.70517-37.89491 15.70517-37.89491-22.92361 1.30581-37.66 16.26037z" fill="#6c63ff" transform="translate(-15.44618 -50.56634)"/><path d="m95.89321 417.33792c-14.73639 14.95457-15.70521 37.89491-15.70521 37.89491s22.92362-1.30581 37.66-16.26037 15.70517-37.89491 15.70517-37.89491-22.92357 1.30581-37.65996 16.26037z" fill="#fc6681" transform="translate(-15.44618 -50.56634)"/><path d="m916.89321 466.33792c-14.73639 14.95457-15.70517 37.89491-15.70517 37.89491s22.92362-1.30581 37.66-16.26037 15.70517-37.89491 15.70517-37.89491-22.92361 1.30581-37.66 16.26037z" fill="#6c63ff" transform="translate(-15.44618 -50.56634)"/><path d="m194.73035 449.901c-19.41845-7.98271-41.01995-.19983-41.01995-.19983s9.88205 20.72542 29.30051 28.70813 41.01995.19983 41.01995.19983-9.88205-20.72537-29.30051-28.70813z" fill="#6c63ff" transform="translate(-15.44618 -50.56634)"/><path d="m438.89492 419.916c-11.22433-17.743-33.34774-23.88733-33.34774-23.88733s-3.92516 22.62279 7.29917 40.36581 33.34773 23.88733 33.34773 23.88733 3.92517-22.62281-7.29916-40.36581z" fill="#ffd037" transform="translate(-15.44618 -50.56634)"/><circle cx="694.35708" cy="442.69099" fill="#fc6681" r="8.66902"/><circle cx="714.58479" cy="535.16051" fill="#fc6681" r="8.66902"/><g transform="translate(-15.44618 -50.56634)"><path d="m547.17172 613.94624s-33-37-45 9-19 52-43 40-49 45 10 86 26 81.5 26 81.5h211s28-81.5-33-109.5-59-49-57-77-69-30-69-30z" fill="#6c63ff"/><path d="m519.17172 599.876s137 180.57028 90 230.57028" fill="none" stroke="#535461" stroke-miterlimit="10" stroke-width="2"/><path d="m483.75026 665.855s32.42146 27.59127 85.42146 13.59127 39.93178-49.91562 39.93178-49.91562" fill="none" stroke="#535461" stroke-miterlimit="10" stroke-width="2"/><path d="m705.62082 753.1394s-70.53093-34.20762-105.99-21.45039c-92.32238 33.21512-160.95908-56.24277-160.95908-56.24277" fill="none" stroke="#535461" stroke-miterlimit="10" stroke-width="2"/><path d="m500.67172 828.94624s43-32-11-144c0 0-72-89 0-173 0 0-157 4-154 150s78.5 167 78.5 167z" fill="#6c63ff"/><path d="m460.50505 828.94624s-10.83333-77-39.83333-124a100.81046 100.81046 0 0 1 -12.185-30.70813c-9.69437-42.629 4.12562-87.20841 35.43729-117.71721l45.74768-44.57466" fill="none" stroke="#535461" stroke-miterlimit="10" stroke-width="2"/><path d="m500.67172 828.94624s43-32-11-144c0 0-72-89 0-173 0 0-157 4-154 150s78.5 167 78.5 167z" opacity=".1"/><path d="m886.11088 828.06532s-147.14336-32.89582 40.077-225.38883c0 0 80.70468 76.48742 51.09772 171.57117-11.90374 38.22927-50.19728 61.83162-88.98163 54.26911q-1.08915-.21237-2.19309-.45145z" fill="#6c63ff"/><path d="m886.11088 828.06532c-3.231-.72233-143.97448-36.154 40.077-225.38883 0 0 80.70468 76.48742 51.09772 171.57117-11.90374 38.22927-50.19728 61.83162-88.98163 54.26911q-1.08915-.21237-2.19309-.45145z" fill="#fff" opacity=".4"/><path d="m888.0427 829.15944s77.71935-117.08468 38.14518-226.483" fill="none" stroke="#535461" stroke-miterlimit="10"/><path d="m277.11088 828.06532s-147.14336-32.89582 40.077-225.38883c0 0 80.70468 76.48742 51.09772 171.57117-11.90374 38.22927-50.19728 61.83162-88.98163 54.26911q-1.08915-.21237-2.19309-.45145z" fill="#6c63ff"/><path d="m277.11088 828.06532c-3.231-.72233-143.97448-36.154 40.077-225.38883 0 0 80.70468 76.48742 51.09772 171.57117-11.90374 38.22927-50.19728 61.83162-88.98163 54.26911q-1.08915-.21237-2.19309-.45145z" fill="#fff" opacity=".4"/><path d="m279.0427 829.15944s77.71935-117.08468 38.14518-226.483" fill="none" stroke="#535461" stroke-miterlimit="10"/><path d="m606.11088 828.06532s-147.14336-32.89582 40.077-225.38883c0 0 80.70468 76.48742 51.09772 171.57117-11.90374 38.22927-50.19728 61.83162-88.98163 54.26911q-1.08915-.21237-2.19309-.45145z" fill="#6c63ff"/><path d="m606.11088 828.06532c-3.231-.72233-143.97448-36.154 40.077-225.38883 0 0 80.70468 76.48742 51.09772 171.57117-11.90374 38.22927-50.19728 61.83162-88.98163 54.26911q-1.08915-.21237-2.19309-.45145z" fill="#fff" opacity=".4"/><path d="m608.0427 829.15944s77.71935-117.08468 38.14518-226.483" fill="none" stroke="#535461" stroke-miterlimit="10"/><path d="m1058.11088 828.06532s-147.14336-32.89582 40.077-225.38883c0 0 80.70468 76.48742 51.09772 171.57117-11.90374 38.22927-50.19728 61.83162-88.98163 54.26911q-1.08915-.21237-2.19309-.45145z" fill="#6c63ff"/><path d="m1058.11088 828.06532c-3.231-.72233-143.97448-36.154 40.077-225.38883 0 0 80.70468 76.48742 51.09772 171.57117-11.90374 38.22927-50.19728 61.83162-88.98163 54.26911q-1.08915-.21237-2.19309-.45145z" fill="#fff" opacity=".4"/><path d="m1060.0427 829.15944s77.71935-117.08468 38.14518-226.483" fill="none" stroke="#535461" stroke-miterlimit="10"/><path d="m784.11088 828.06532s-147.14336-32.89582 40.077-225.38883c0 0 80.70468 76.48742 51.09772 171.57117-11.90374 38.22927-50.19728 61.83162-88.98163 54.26911q-1.08915-.21237-2.19309-.45145z" fill="#6c63ff"/><path d="m784.11088 828.06532c-3.231-.72233-143.97448-36.154 40.077-225.38883 0 0 80.70468 76.48742 51.09772 171.57117-11.90374 38.22927-50.19728 61.83162-88.98163 54.26911q-1.08915-.21237-2.19309-.45145z" fill="#fff" opacity=".4"/><path d="m786.0427 829.15944s77.71935-117.08468 38.14518-226.483" fill="none" stroke="#535461" stroke-miterlimit="10"/><path d="m272.18353 816.56671c4.34343-3.2928 8.41793-7.17728 9.66941-11.90571a10.06746 10.06746 0 0 0 -6.75669-12.12626c-6.20552-1.9361-12.83667 1.57342-17.86421 5.11694s-10.78951 7.58866-17.36936 6.8382c6.81688-4.92316 10.0573-12.924 8.17778-20.19162a7.81842 7.81842 0 0 0 -2.27432-4.10033c-3.44473-3.00464-9.68947-1.71428-13.814.65272-13.117 7.52755-16.77707 22.06427-16.84844 35.14819-1.32284-4.71945-.20866-9.63738-.2413-14.47864s-1.65877-10.20787-6.66428-12.808c-2.97208-1.5439-6.64348-1.84353-10.16443-1.94918-5.8963-.17695-12.46332.30533-16.49006 3.82377-5.0032 4.37173-3.7056 11.7067.647 16.51952s10.97343 7.82838 17.06771 11.15271c4.6445 2.53348 9.34178 5.493 12.19712 9.49155a8.61162 8.61162 0 0 1 .9042 1.6957h36.96427a106.27162 106.27162 0 0 0 22.8596-12.87956z" fill="#6c63ff"/><path d="m891.18353 816.56671c4.34343-3.2928 8.41793-7.17728 9.66941-11.90571a10.06746 10.06746 0 0 0 -6.75669-12.12626c-6.20552-1.9361-12.83667 1.57342-17.86421 5.11694s-10.78951 7.58866-17.36936 6.8382c6.81688-4.92316 10.0573-12.924 8.17778-20.19162a7.81842 7.81842 0 0 0 -2.27432-4.10033c-3.44473-3.00464-9.68947-1.71428-13.814.65272-13.117 7.52755-16.77707 22.06427-16.84844 35.14819-1.32284-4.71945-.20866-9.63738-.2413-14.47864s-1.65877-10.20787-6.66428-12.808c-2.97208-1.5439-6.64348-1.84353-10.16443-1.94918-5.8963-.17695-12.46332.30533-16.49006 3.82377-5.0032 4.37173-3.7056 11.7067.647 16.51952s10.97343 7.82838 17.06771 11.15271c4.6445 2.53348 9.34178 5.493 12.19712 9.49155a8.61162 8.61162 0 0 1 .9042 1.6957h36.96427a106.27162 106.27162 0 0 0 22.8596-12.87956z" fill="#6c63ff"/><path d="m692.30937 744.60311c32.32846 59.95453 100.941 85.69172 100.941 85.69172s16.1978-71.46832-16.13066-131.42285-100.941-85.69173-100.941-85.69173-16.19779 71.46832 16.13066 131.42286z" fill="#3f3d56"/><path d="m714.52994 724.87849c58.36618 35.115 80.84484 104.86313 80.84484 104.86313s-72.15161 12.81538-130.51778-22.29962-80.84484-104.86314-80.84484-104.86314 72.15161-12.8154 130.51778 22.29963z" fill="#6c63ff"/><path d="m504.30937 744.60311c32.32846 59.95453 100.941 85.69172 100.941 85.69172s16.1978-71.46832-16.13066-131.42285-100.941-85.69173-100.941-85.69173-16.19779 71.46832 16.13066 131.42286z" fill="#3f3d56"/><path d="m526.52994 724.87849c58.36618 35.115 80.84484 104.86313 80.84484 104.86313s-72.15161 12.81538-130.51778-22.29962-80.84484-104.86314-80.84484-104.86314 72.15161-12.8154 130.51778 22.29963z" fill="#6c63ff"/><path d="m312.06586 541.98612c-55.92712 83.72762-42.04538 191.1589-42.04538 191.1589s104.55752-28.31802 160.48464-112.04561 42.04537-191.1589 42.04537-191.1589-104.55749 28.318-160.48463 112.04561z" fill="#3f3d56"/><path d="m353.21031 557.354c-5.45969 100.54028-80.99669 178.18269-80.99669 178.18269s-66.68509-85.36558-61.22539-185.90585 80.99669-178.18269 80.99669-178.18269 66.68508 85.36557 61.22539 185.90585z" fill="#fc6681"/><path d="m1108.24355 671.43105c2.10505 114.01688-64.942 155.07344-148.54761 156.617q-2.913.05379-5.79913.042-5.81443-.01808-11.51287-.31725c-75.55548-3.94953-134.95794-44.7163-136.91563-150.75174-2.026-109.73354 135.6644-250.80447 145.99337-261.238.00918-.00017.00918-.00017.01831-.00964.39238-.39761.59328-.59647.59328-.59647s154.06541 142.24647 156.17028 256.2541z" fill="#6c63ff"/><path d="m953.864 810.70949 53.94016-78.38391-53.92277 86.879.01542 8.88548q-5.81443-.01808-11.51287-.31725l3.85933-114.17351-.06269-.8818.099-.16918.3679-10.78867-57.23629-85.04047 57.2544 76.963.1816 2.28317 2.91529-86.26255-49.27991-88.05946 49.58567 72.9034 1.39345-178.76366.00751-.595.0108.58532 1.82116 140.92116 46.38348-56.73635-46.36394 68.87492.17035 77.18967 42.92564-74.87156-42.89269 86.21989.09534 42.92135 62.37592-104.26748-62.35044 119.24083z" fill="#3f3d56"/><path d="m873.24355 671.43105c2.10505 114.01688-64.942 155.07344-148.54761 156.617q-2.913.05379-5.79913.042-5.81443-.01808-11.51287-.31725c-75.55548-3.94953-134.95794-44.7163-136.91563-150.75174-2.026-109.73354 135.6644-250.80447 145.99337-261.238.00918-.00017.00918-.00017.01831-.00964.39238-.39761.59328-.59647.59328-.59647s154.06541 142.24647 156.17028 256.2541z" fill="#6c63ff"/><path d="m718.864 810.70949 53.94016-78.38391-53.92277 86.879.01542 8.88548q-5.81443-.01808-11.51287-.31725l3.85933-114.17351-.06269-.8818.099-.16918.3679-10.78867-57.23629-85.04047 57.2544 76.963.1816 2.28317 2.91529-86.26255-49.27991-88.05946 49.58567 72.9034 1.39345-178.76366.00751-.595.0108.58532 1.82116 140.92116 46.38348-56.73635-46.36394 68.87492.17035 77.18967 42.92564-74.87156-42.89269 86.21989.09534 42.92135 62.37592-104.26748-62.35044 119.24083z" fill="#3f3d56"/><path d="m1154.24355 673.43105c2.10505 114.01688-64.942 155.07344-148.54761 156.617q-2.913.05379-5.79913.042-5.81443-.01808-11.51287-.31725c-75.55548-3.94953-134.95794-44.7163-136.91563-150.75174-2.026-109.73354 135.6644-250.80447 145.99337-261.238.00918-.00017.00918-.00017.01831-.00964.39238-.39761.59328-.59647.59328-.59647s154.06541 142.24647 156.17028 256.2541z" fill="#3f3d56"/><path d="m999.864 812.70949 53.94016-78.38391-53.92277 86.879.01542 8.88548q-5.81443-.01808-11.51287-.31725l3.85933-114.17351-.06269-.8818.099-.16918.3679-10.78867-57.23629-85.04047 57.2544 76.963.1816 2.28317 2.91529-86.26255-49.27991-88.05946 49.58567 72.9034 1.39345-178.76366.00751-.595.0108.58532 1.82116 140.92116 46.38348-56.73635-46.36394 68.87492.17035 77.18967 42.92564-74.87156-42.89269 86.21989.09534 42.92135 62.37592-104.26748-62.35044 119.24083z" fill="#fc6681"/><path d="m318.24355 671.43105c2.105 114.01688-64.942 155.07344-148.54761 156.617q-2.913.05379-5.79913.042-5.81443-.01808-11.51287-.31725c-75.55548-3.94952-134.95794-44.71629-136.91563-150.75173-2.026-109.73354 135.6644-250.80447 145.99337-261.238.00918-.00017.00918-.00017.01831-.00964.39238-.39761.59328-.59647.59328-.59647s154.06541 142.24646 156.17028 256.25409z" fill="#6c63ff"/><path d="m163.864 810.70949 53.94016-78.38391-53.92277 86.879.01542 8.88548q-5.81443-.01808-11.51287-.31725l3.85933-114.17351-.06269-.8818.099-.16918.3679-10.78867-57.2363-85.04047 57.2544 76.963.1816 2.28317 2.91529-86.26255-49.27991-88.05946 49.58567 72.9034 1.39345-178.76366.00751-.595.0108.58532 1.82116 140.92116 46.38348-56.73635-46.36394 68.87492.17035 77.18967 42.92564-74.87156-42.89268 86.21989.09534 42.92135 62.37592-104.26748-62.35044 119.24083z" fill="#3f3d56"/><path d="m933.55382 845.43366q-53.9744-9.14417-103.81489-15.70606l13.13539-25.46773c-4.42928-1.53838-23.88922 13.04624-23.88922 13.04624l17.2381-73.9267c-22.27651 2.68647-33.60271 78.17013-33.60271 78.17013l-24.88864-25.52054 12.04939 28.69176c-101.69424-11.97604-189.52081-16.41656-263.39324-16.57662l11.2426-21.79771c-4.42928-1.53838-23.88922 13.04624-23.88922 13.04624l17.2381-73.92669c-22.27651 2.68647-33.60271 78.17013-33.60271 78.17013l-24.88864-25.52054 12.76221 30.38928c-61.92991 1.23872-112.43284 5.46593-151.41368 10.28495 11.3714-33.95689 50.00077-66.2526 50.00077-66.2526-29.501 8.774-44.97591 23.47686-53.062 37.18414a595.41042 595.41042 0 0 1 34.41465-205.722s-60.97752 132.69266-53.19689 221.7615l.93063 15.81606c-51.69524 7.40207-77.68527 15.1032-77.68527 15.1032z" fill="#3f3d56"/><path d="m1050.55382 839.43366q-53.9744-9.14417-103.81489-15.70606l13.13539-25.46773c-4.42928-1.53838-23.88922 13.04624-23.88922 13.04624l17.2381-73.9267c-22.27651 2.68647-33.60271 78.17013-33.60271 78.17013l-24.88864-25.52054 12.04939 28.69176c-101.69424-11.97604-189.52081-16.41656-263.39324-16.57662l11.2426-21.79771c-4.42928-1.53838-23.88922 13.04624-23.88922 13.04624l17.2381-73.92669c-22.27651 2.68647-33.60271 78.17013-33.60271 78.17013l-24.88864-25.52054 12.76221 30.38928c-61.92991 1.23872-112.43284 5.46593-151.41368 10.28495 11.3714-33.95689 50.00077-66.2526 50.00077-66.2526-29.501 8.774-44.97591 23.47686-53.062 37.18414a595.41042 595.41042 0 0 1 34.41465-205.722s-60.97752 132.69266-53.19689 221.7615l.93063 15.81606c-51.69524 7.40207-77.68527 15.1032-77.68527 15.1032z" fill="#3f3d56"/><path d="m1184.55382 849.43366q-53.9744-9.14417-103.81489-15.70606l13.13539-25.46773c-4.42928-1.53838-23.88922 13.04624-23.88922 13.04624l17.2381-73.9267c-22.27651 2.68647-33.60271 78.17013-33.60271 78.17013l-24.88864-25.52054 12.04939 28.69176c-101.69424-11.97604-189.52081-16.41656-263.39324-16.57662l11.2426-21.79771c-4.42928-1.53838-23.88922 13.04624-23.88922 13.04624l17.2381-73.92669c-22.27651 2.68647-33.60271 78.17013-33.60271 78.17013l-24.88864-25.52054 12.76221 30.38928c-61.92991 1.23872-112.43284 5.46593-151.41368 10.28495 11.3714-33.95689 50.00077-66.2526 50.00077-66.2526-29.501 8.774-44.97591 23.47686-53.062 37.18414a595.41042 595.41042 0 0 1 34.41465-205.722s-60.97752 132.69266-53.19689 221.7615l.93063 15.81606c-51.69524 7.40207-77.68527 15.1032-77.68527 15.1032z" fill="#3f3d56"/><path d="m741.55382 839.43366q-53.9744-9.14417-103.81489-15.70606l13.13539-25.46773c-4.42928-1.53838-23.88922 13.04624-23.88922 13.04624l17.2381-73.9267c-22.27651 2.68647-33.60271 78.17013-33.60271 78.17013l-24.88864-25.52054 12.04939 28.69176c-101.69424-11.97604-189.52081-16.41656-263.39324-16.57662l11.2426-21.79771c-4.42928-1.53838-23.88922 13.04624-23.88922 13.04624l17.2381-73.92669c-22.27651 2.68647-33.60271 78.17013-33.60271 78.17013l-24.88864-25.52054 12.76221 30.38928c-61.92991 1.23872-112.43284 5.46593-151.41368 10.28495 11.3714-33.95689 50.00077-66.2526 50.00077-66.2526-29.501 8.774-44.97591 23.47686-53.062 37.18414a595.41042 595.41042 0 0 1 34.41465-205.722s-60.97752 132.69266-53.19689 221.7615l.93063 15.81606c-51.69524 7.40207-77.68527 15.1032-77.68527 15.1032z" fill="#3f3d56"/></g></svg>